<svg xmlns="http://www.w3.org/2000/svg" version="1.1" xmlns:xlink="http://www.w3.org/1999/xlink" xmlns:svgjs="http://svgjs.dev/svgjs" width="1440" height="560" preserveAspectRatio="none" viewBox="0 0 1440 560">
	<g mask="url(&quot;#SvgjsMask1127&quot;)" fill="none">
		<rect width="1440" height="560" x="0" y="0" fill="url(&quot;#SvgjsLinearGradient1128&quot;)"></rect>
		<path d="M103.128,193.548C149.674,192.821,191.404,166.932,215.058,126.838C239.127,86.041,243.02,36.118,220.637,-5.628C196.985,-49.741,153.176,-81.135,103.128,-81.923C51.788,-82.731,3.996,-54.3,-20.969,-9.432C-45.286,34.272,-41.112,87.761,-15.025,130.431C9.938,171.262,55.277,194.295,103.128,193.548" fill="rgba(28, 83, 142, 0.4)" class="triangle-float1"></path>
		<path d="M425.677,776.248C483.3,777.826,538.36,749.988,568.243,700.693C599.242,649.557,605.349,583.611,572.904,533.381C542.545,486.381,481.598,478.11,425.677,479.979C373.783,481.714,321.539,498.318,294.565,542.685C266.621,588.648,269.689,646.334,296.02,693.24C322.944,741.202,370.696,774.743,425.677,776.248" fill="rgba(28, 83, 142, 0.4)" class="triangle-float3"></path>
		<path d="M1169.759,278.153C1202.778,275.79,1231.557,257.275,1248.027,228.56C1264.409,199.998,1267.831,164.767,1251.035,136.447C1234.538,108.631,1202.089,97.406,1169.759,96.593C1135.633,95.735,1100.538,104.125,1081.081,132.174C1058.722,164.406,1048.977,207.82,1069.344,241.347C1089.181,274.003,1131.647,280.88,1169.759,278.153" fill="rgba(28, 83, 142, 0.4)" class="triangle-float2"></path>
		<path d="M1261.815,523.52C1316.59,526.779,1379.172,520.846,1407.063,473.591C1435.232,425.865,1411.231,367.407,1381.6,320.575C1354.445,277.656,1312.591,242.914,1261.815,244.024C1212.596,245.1,1174.567,282.524,1150.77,325.621C1127.89,367.058,1120.543,416.643,1143.706,457.923C1167.326,500.017,1213.632,520.653,1261.815,523.52" fill="rgba(28, 83, 142, 0.4)" class="triangle-float3"></path>
		<path d="M272.225,119.884C295.887,121.118,322.431,118.53,334.979,98.432C348.043,77.508,340.975,50.991,328.539,29.687C316.226,8.594,296.627,-10.109,272.225,-9.073C249.012,-8.087,234.279,13.494,223.628,34.143C214.062,52.688,209.575,74.277,219.864,92.431C230.279,110.807,251.132,118.784,272.225,119.884" fill="rgba(28, 83, 142, 0.4)" class="triangle-float3"></path>
		<path d="M450.915,580.642C478.108,580.909,508.649,580.654,523.557,557.91C539.507,533.576,535.413,500.696,519.115,476.594C504.5,454.981,477.003,450.151,450.915,450.483C425.574,450.806,399.651,457.164,385.658,478.294C370.199,501.638,365.65,532.897,380.703,556.506C394.963,578.872,424.391,580.381,450.915,580.642" fill="rgba(28, 83, 142, 0.4)" class="triangle-float2"></path>
		<path d="M1237.14,294.141C1293.98,295.755,1359.468,293.382,1388.327,244.387C1417.433,194.972,1390.005,135.017,1359.458,86.479C1331.401,41.898,1289.762,6.529,1237.14,4.158C1180.251,1.595,1123.072,25.488,1094.118,74.525C1064.729,124.298,1068.583,187.768,1100.127,236.204C1129.13,280.74,1184.014,292.633,1237.14,294.141" fill="rgba(28, 83, 142, 0.4)" class="triangle-float2"></path>
		<path d="M909.359,263.036C952.42,260.654,978.734,220.406,999.261,182.478C1018.481,146.965,1034.193,105.124,1013.632,70.371C993.325,36.047,949.216,29.134,909.359,30.517C872.381,31.8,837.476,46.44,816.911,77.198C793.59,112.079,781.715,155.911,800.403,193.478C820.972,234.826,863.247,265.587,909.359,263.036" fill="rgba(28, 83, 142, 0.4)" class="triangle-float3"></path>
		<path d="M150.511,446.852C193.725,446.656,221.83,406.963,243.627,369.649C265.694,331.872,285.706,288.275,265.946,249.242C244.684,207.243,197.565,184.349,150.511,185.714C105.646,187.016,66.576,215.667,46.124,255.621C27.355,292.287,36.187,334.344,55.923,370.499C76.731,408.619,107.082,447.049,150.511,446.852" fill="rgba(28, 83, 142, 0.4)" class="triangle-float3"></path>
		<path d="M1356.5,563.855C1398.572,562.396,1442.307,554.769,1465.8,519.837C1491.995,480.889,1496.822,429.903,1474.28,388.733C1450.901,346.035,1405.18,320.142,1356.5,320.217C1307.948,320.292,1264.131,347.344,1239.35,389.096C1214.015,431.782,1205.594,486.67,1233.233,527.901C1258.776,566.006,1310.654,565.445,1356.5,563.855" fill="rgba(28, 83, 142, 0.4)" class="triangle-float2"></path>
	</g>
	<defs>
		<mask id="SvgjsMask1127">
			<rect width="1440" height="560" fill="#ffffff"></rect>
		</mask>
		<linearGradient x1="15.28%" y1="-39.29%" x2="84.72%" y2="139.29%" gradientUnits="userSpaceOnUse" id="SvgjsLinearGradient1128">
			<stop stop-color="#0e2a47" offset="0"></stop>
			<stop stop-color="rgba(82, 29, 172, 1)" offset="1"></stop>
		</linearGradient>
		<style>
			@keyframes float1 {
			0%{transform: translate(0, 0)}
			50%{transform: translate(-10px, 0)}
			100%{transform: translate(0, 0)}
			}

			.triangle-float1 {
			animation: float1 5s infinite;
			}

			@keyframes float2 {
			0%{transform: translate(0, 0)}
			50%{transform: translate(-5px, -5px)}
			100%{transform: translate(0, 0)}
			}

			.triangle-float2 {
			animation: float2 4s infinite;
			}

			@keyframes float3 {
			0%{transform: translate(0, 0)}
			50%{transform: translate(0, -10px)}
			100%{transform: translate(0, 0)}
			}

			.triangle-float3 {
			animation: float3 6s infinite;
			}
		</style>
	</defs>
</svg>