<svg xmlns="http://www.w3.org/2000/svg" version="1.1" xmlns:xlink="http://www.w3.org/1999/xlink" xmlns:svgjs="http://svgjs.dev/svgjs" width="1000" height="200" preserveAspectRatio="none" viewBox="0 0 1000 200"><g mask="url(&quot;#SvgjsMask1762&quot;)" fill="none"><rect width="1000" height="200" x="0" y="0" fill="url(&quot;#SvgjsLinearGradient1763&quot;)"></rect><path d="M225.051,222.539C238.439,222.436,251.618,217.628,258.853,206.363C266.699,194.148,269.087,178.181,261.487,165.811C254.155,153.878,239.056,151.426,225.051,151.35C210.868,151.273,195.443,153.386,187.926,165.413C180.058,178,182.246,194.443,190.335,206.89C197.749,218.298,211.446,222.644,225.051,222.539" fill="rgba(242, 242, 242, 0.4)" class="triangle-float1"></path><path d="M346.18 199.54 a61.59 61.59 0 1 0 123.18 0 a61.59 61.59 0 1 0 -123.18 0z" fill="rgba(242, 242, 242, 0.4)" class="triangle-float3"></path><path d="M724.966,109.031C743.642,108.81,762.148,103.284,772.805,87.946C785.212,70.089,791.606,46.941,781.472,27.703C770.774,7.395,747.917,-3.135,724.966,-2.867C702.485,-2.605,681.411,9.228,670.699,28.995C660.44,47.926,663.046,71.277,675.13,89.099C685.892,104.971,705.791,109.257,724.966,109.031" fill="rgba(242, 242, 242, 0.4)" class="triangle-float2"></path><path d="M41.08 157.83 a39.99 39.99 0 1 0 79.98 0 a39.99 39.99 0 1 0 -79.98 0z" fill="rgba(242, 242, 242, 0.4)" class="triangle-float3"></path><path d="M244.506,145.309C251.466,145.204,258.439,143.057,262.231,137.219C266.37,130.846,267.44,122.517,263.549,115.99C259.733,109.59,251.957,107.421,244.506,107.489C237.196,107.555,229.891,110.11,226.053,116.331C222.031,122.85,221.71,131.309,225.825,137.77C229.691,143.841,237.31,145.418,244.506,145.309" fill="rgba(242, 242, 242, 0.4)" class="triangle-float3"></path><path d="M730.746,-0.344C735.96,-0.524,741.32,-2.203,743.866,-6.756C746.364,-11.224,744.655,-16.456,742.295,-20.999C739.667,-26.059,736.446,-31.856,730.746,-32.013C724.894,-32.174,720.916,-26.766,718.04,-21.667C715.23,-16.685,713.028,-10.706,715.956,-5.792C718.839,-0.955,725.118,-0.15,730.746,-0.344" fill="rgba(242, 242, 242, 0.4)" class="triangle-float3"></path><path d="M137.03 43.56 a51.29 51.29 0 1 0 102.58 0 a51.29 51.29 0 1 0 -102.58 0z" fill="rgba(242, 242, 242, 0.4)" class="triangle-float1"></path><path d="M172.335,133.39C185.432,133.11,198.765,129.059,205.545,117.85C212.537,106.29,211.879,91.428,204.602,80.046C197.822,69.442,184.914,66.318,172.335,65.905C158.742,65.458,143.739,66.497,136.173,77.798C127.919,90.127,128.479,106.888,136.569,119.325C144.056,130.834,158.608,133.684,172.335,133.39" fill="rgba(242, 242, 242, 0.4)" class="triangle-float3"></path></g><defs><mask id="SvgjsMask1762"><rect width="1000" height="200" fill="#ffffff"></rect></mask><linearGradient x1="100%" y1="50%" x2="0%" y2="50%" gradientUnits="userSpaceOnUse" id="SvgjsLinearGradient1763"><stop stop-color="rgba(255, 255, 255, 1)" offset="0.5"></stop><stop stop-color="rgba(108, 0, 189, 1)" offset="0.96"></stop></linearGradient><style>
                @keyframes float1 {
                    0%{transform: translate(0, 0)}
                    50%{transform: translate(-10px, 0)}
                    100%{transform: translate(0, 0)}
                }

                .triangle-float1 {
                    animation: float1 5s infinite;
                }

                @keyframes float2 {
                    0%{transform: translate(0, 0)}
                    50%{transform: translate(-5px, -5px)}
                    100%{transform: translate(0, 0)}
                }

                .triangle-float2 {
                    animation: float2 4s infinite;
                }

                @keyframes float3 {
                    0%{transform: translate(0, 0)}
                    50%{transform: translate(0, -10px)}
                    100%{transform: translate(0, 0)}
                }

                .triangle-float3 {
                    animation: float3 6s infinite;
                }
            </style></defs></svg>