<svg xmlns="http://www.w3.org/2000/svg" version="1.1" xmlns:xlink="http://www.w3.org/1999/xlink" xmlns:svgjs="http://svgjs.dev/svgjs" width="500" height="500" preserveAspectRatio="none" viewBox="0 0 500 500"><g mask="url(&quot;#SvgjsMask1380&quot;)" fill="none"><rect width="500" height="500" x="0" y="0" fill="url(&quot;#SvgjsLinearGradient1381&quot;)"></rect><path d="M431.401,370.609C481.183,374.815,539.885,376.736,566.481,334.445C594.022,290.652,571.096,235.52,544.117,191.379C518.584,149.604,480.307,115.731,431.401,113.435C378.452,110.949,322.447,132.453,298.733,179.86C276.606,224.095,302.567,273.928,330.808,314.533C354.301,348.311,390.402,367.145,431.401,370.609" fill="rgba(242, 242, 242, 0.4)" class="triangle-float1"></path><path d="M311.216,165.008C335.706,163.956,361.712,159.923,374.783,139.186C388.593,117.277,385.303,89.596,373.173,66.714C360.115,42.082,339.093,18.93,311.216,19.274C283.732,19.613,265.756,44.503,251.851,68.212C237.715,92.316,222.824,121.264,237.433,145.084C251.708,168.359,283.937,166.179,311.216,165.008" fill="rgba(242, 242, 242, 0.4)" class="triangle-float3"></path><path d="M104.42 288.22 a85.72 85.72 0 1 0 171.44 0 a85.72 85.72 0 1 0 -171.44 0z" fill="rgba(242, 242, 242, 0.4)" class="triangle-float3"></path><path d="M39.735,443.442C73.536,444.795,106.83,427.381,122.464,397.383C137.171,369.164,125.174,337.032,109.679,309.238C93.62,280.432,72.691,250.242,39.735,248.992C5.228,247.683,-24.449,272.749,-40.048,303.557C-54.246,331.598,-47.836,363.886,-32.264,391.188C-16.518,418.796,7.977,442.17,39.735,443.442" fill="rgba(242, 242, 242, 0.4)" class="triangle-float1"></path><path d="M23.72 491.59 a122.45 122.45 0 1 0 244.9 0 a122.45 122.45 0 1 0 -244.9 0z" fill="rgba(242, 242, 242, 0.4)" class="triangle-float1"></path><path d="M487.16185500563654 258.67082776081145L419.7820164033995 126.4304486608196 287.54163730340764 193.81028726305664 354.9214759056447 326.0506663630485z" fill="rgba(242, 242, 242, 0.4)" class="triangle-float3"></path><path d="M42.79 30.81 a147.15 147.15 0 1 0 294.3 0 a147.15 147.15 0 1 0 -294.3 0z" fill="rgba(242, 242, 242, 0.4)" class="triangle-float2"></path></g><defs><mask id="SvgjsMask1380"><rect width="500" height="500" fill="#ffffff"></rect></mask><linearGradient x1="100%" y1="50%" x2="0%" y2="50%" gradientUnits="userSpaceOnUse" id="SvgjsLinearGradient1381"><stop stop-color="rgba(255, 255, 255, 1)" offset="0.5"></stop><stop stop-color="rgba(108, 0, 189, 1)" offset="0.96"></stop></linearGradient><style>
                @keyframes float1 {
                    0%{transform: translate(0, 0)}
                    50%{transform: translate(-10px, 0)}
                    100%{transform: translate(0, 0)}
                }

                .triangle-float1 {
                    animation: float1 5s infinite;
                }

                @keyframes float2 {
                    0%{transform: translate(0, 0)}
                    50%{transform: translate(-5px, -5px)}
                    100%{transform: translate(0, 0)}
                }

                .triangle-float2 {
                    animation: float2 4s infinite;
                }

                @keyframes float3 {
                    0%{transform: translate(0, 0)}
                    50%{transform: translate(0, -10px)}
                    100%{transform: translate(0, 0)}
                }

                .triangle-float3 {
                    animation: float3 6s infinite;
                }
            </style></defs></svg>