<svg xmlns="http://www.w3.org/2000/svg" version="1.1" xmlns:xlink="http://www.w3.org/1999/xlink" xmlns:svgjs="http://svgjs.dev/svgjs" width="100" height="100" preserveAspectRatio="none" viewBox="0 0 100 100"><g mask="url(&quot;#SvgjsMask1210&quot;)" fill="none"><rect width="100" height="100" x="0" y="0" fill="url(&quot;#SvgjsLinearGradient1211&quot;)"></rect><path d="M-11.94 -1.4 a10.54 10.54 0 1 0 21.08 0 a10.54 10.54 0 1 0 -21.08 0z" fill="rgba(242, 242, 242, 0.4)" class="triangle-float1"></path><path d="M-8.42 -4.92 a3.5 3.5 0 1 0 7 0 a3.5 3.5 0 1 0 -7 0z" fill="rgba(242, 242, 242, 0.4)" class="triangle-float2"></path><path d="M-19.75 6.42 a26.17 26.17 0 1 0 52.34 0 a26.17 26.17 0 1 0 -52.34 0z" fill="rgba(242, 242, 242, 0.4)" class="triangle-float2"></path><path d="M64.92 1.75 a16.83 16.83 0 1 0 33.66 0 a16.83 16.83 0 1 0 -33.66 0z" fill="rgba(242, 242, 242, 0.4)" class="triangle-float2"></path><path d="M59.2 7.46 a28.26 28.26 0 1 0 56.52 0 a28.26 28.26 0 1 0 -56.52 0z" fill="rgba(242, 242, 242, 0.4)" class="triangle-float2"></path><path d="M64.88 1.78 a16.9 16.9 0 1 0 33.8 0 a16.9 16.9 0 1 0 -33.8 0z" fill="rgba(242, 242, 242, 0.4)" class="triangle-float2"></path><path d="M-22.96 89.63 a32.59 32.59 0 1 0 65.18 0 a32.59 32.59 0 1 0 -65.18 0z" fill="rgba(242, 242, 242, 0.4)" class="triangle-float3"></path><path d="M-13.9 80.57 a14.47 14.47 0 1 0 28.94 0 a14.47 14.47 0 1 0 -28.94 0z" fill="rgba(242, 242, 242, 0.4)" class="triangle-float3"></path><path d="M-21.51 88.17 a29.68 29.68 0 1 0 59.36 0 a29.68 29.68 0 1 0 -59.36 0z" fill="rgba(242, 242, 242, 0.4)" class="triangle-float2"></path><path d="M67.7 78.97 a11.27 11.27 0 1 0 22.54 0 a11.27 11.27 0 1 0 -22.54 0z" fill="rgba(242, 242, 242, 0.4)" class="triangle-float3"></path><path d="M60.47 86.19 a25.72 25.72 0 1 0 51.44 0 a25.72 25.72 0 1 0 -51.44 0z" fill="rgba(242, 242, 242, 0.4)" class="triangle-float2"></path><path d="M71.66 75.01 a3.35 3.35 0 1 0 6.7 0 a3.35 3.35 0 1 0 -6.7 0z" fill="rgba(242, 242, 242, 0.4)" class="triangle-float1"></path></g><defs><mask id="SvgjsMask1210"><rect width="100" height="100" fill="#ffffff"></rect></mask><linearGradient x1="0%" y1="0%" x2="100%" y2="100%" gradientUnits="userSpaceOnUse" id="SvgjsLinearGradient1211"><stop stop-color="#0e2a47" offset="0"></stop><stop stop-color="rgba(146, 82, 255, 1)" offset="1"></stop></linearGradient><style>
                @keyframes float1 {
                    0%{transform: translate(0, 0)}
                    50%{transform: translate(-10px, 0)}
                    100%{transform: translate(0, 0)}
                }

                .triangle-float1 {
                    animation: float1 5s infinite;
                }

                @keyframes float2 {
                    0%{transform: translate(0, 0)}
                    50%{transform: translate(-5px, -5px)}
                    100%{transform: translate(0, 0)}
                }

                .triangle-float2 {
                    animation: float2 4s infinite;
                }

                @keyframes float3 {
                    0%{transform: translate(0, 0)}
                    50%{transform: translate(0, -10px)}
                    100%{transform: translate(0, 0)}
                }

                .triangle-float3 {
                    animation: float3 6s infinite;
                }
            </style></defs></svg>